{"title":"Alice in Chains - Live Facelift (1991) [VHSRip] [DivX]","uid":7445098,"size":1722088851,"categoryP":"video","categoryS":"movies","magnet":"?xt=urn:btih:6c61c39e51416733728ad866bd265c3ca38159ca&amp;dn=Alice+in+Chains+-+Live+Facelift+%281991%29+%5BVHSRip%5D+%5BDivX%5D&amp;tr=udp%3A%2F%2Ftracker.openbittorrent.com%3A80&amp;tr=udp%3A%2F%2Fopen.demonii.com%3A1337&amp;tr=udp%3A%2F%2Ftracker.coppersurfer.tk%3A6969&amp;tr=udp%3A%2F%2Fexodus.desync.com%3A6969","seeders":1,"leechers":2,"uploader":"qculfj","files":8,"time":1342345010,"description":"Songs Performed:\n\n- Man in the Box\n- Real Thing\n- Love, Hate, Love\n- Sea of Sorrow\n- Bleed the Freak\n\nPlus:\n\n- We Die Young (Video)\n- Man in the Box (Video)\n\n\nGeneral\nComplete name : Alice in Chains - Live Facelift (1991) [VHSRip] [DivX]\nFormat : MPEG-PS\nFile size : 1 024 MiB\nDuration : 24mn 54s\nOverall bit rate : 5 749 Kbps\nWriting library : encoded by TMPGEnc DVD Author 3 Version. 3.0.5.149\n\nVideo\nID : 224 (0xE0)\nFormat : MPEG Video\nFormat version : Version 2\nFormat profile : Main@Main\nFormat settings, Matrix : Default\nDuration : 24mn 54s\nBit rate mode : Variable\nBit rate : 5 328 Kbps\nNominal bit rate : 6 000 Kbps\nWidth : 720 pixels\nHeight : 576 pixels\nDisplay aspect ratio : 4:3\nFrame rate : 25.000 fps\nStandard : PAL\nColorimetry : 4:2:0\nScan type : Interlaced\nScan order : Top Field First\nBits/(Pixel*Frame) : 0.514\nStream size : 949 MiB (93%)\nWriting library : TMPGEnc DVD Author 3 Version. 3.0.5.149\n\nAudio\nID : 192 (0xC0)\nFormat : MPEG Audio\nFormat version : Version 1\nFormat profile : Layer 2\nDuration : 24mn 53s\nBit rate mode : Constant\nBit rate : 192 Kbps\nChannel(s) : 2 channels\nSampling rate : 48.0 KHz\nResolution : 16 bits\nStream size : 34.2 MiB (3%)","torrent":{"xt":"urn:btih:6c61c39e51416733728ad866bd265c3ca38159ca","amp;dn":"Alice+in+Chains+-+Live+Facelift+%281991%29+%5BVHSRip%5D+%5BDivX%5D","amp;tr":["udp%3A%2F%2Ftracker.openbittorrent.com%3A80","udp%3A%2F%2Fopen.demonii.com%3A1337","udp%3A%2F%2Ftracker.coppersurfer.tk%3A6969","udp%3A%2F%2Fexodus.desync.com%3A6969"],"infoHash":"6c61c39e51416733728ad866bd265c3ca38159ca","infoHashBuffer":{"type":"Buffer","data":[108,97,195,158,81,65,103,51,114,138,216,102,189,38,92,60,163,129,89,202]},"announce":[],"urlList":[]}}